<svg width="91" height="91" viewBox="0 0 91 91" fill="none" xmlns="http://www.w3.org/2000/svg">
<rect width="91" height="91" fill="#1E1E1E"/>
<g id="log-in" clip-path="url(#clip0_2_3)">
<rect width="1440" height="1024" transform="translate(-20 -23)" fill="#FEDAA8"/>
<rect id="Bg" x="-20" y="-23" width="1440" height="1024" fill="#FFFFFE"/>
<g id="logo">
<g id="Group 4">
<circle id="Ellipse 1" cx="45.2027" cy="45.2027" r="44.7027" stroke="black"/>
</g>
<g id="solar:infinity-line-duotone">
<path id="Vector" d="M41.6034 38.3844C40.4989 37.556 39.2133 37.002 37.8526 36.7679C36.4919 36.5338 35.0951 36.6264 33.7772 37.0381C32.4593 37.4497 31.2581 38.1687 30.2726 39.1357C29.2871 40.1027 28.5455 41.29 28.1089 42.5998C27.6723 43.9096 27.5532 45.3045 27.7614 46.6694C27.9696 48.0343 28.4992 49.3301 29.3065 50.4502C30.1138 51.5703 31.1757 52.4825 32.4047 53.1116C33.6337 53.7408 34.9946 54.0689 36.3753 54.0689C41.1869 54.0689 42.4748 50.5834 45.0889 45.3553C47.7029 40.1272 48.9908 36.6417 53.8024 36.6417C55.1831 36.6417 56.544 36.9698 57.773 37.599C59.002 38.2281 60.064 39.1403 60.8713 40.2604C61.6785 41.3804 62.2081 42.6763 62.4163 44.0412C62.6246 45.4061 62.5055 46.8009 62.0689 48.1108C61.6322 49.4206 60.8906 50.6079 59.9051 51.5749C58.9196 52.5419 57.7184 53.2608 56.4005 53.6725C55.0827 54.0842 53.6858 54.1768 52.3251 53.9427C50.9644 53.7086 49.6788 53.1545 48.5743 52.3261" stroke="black" stroke-width="1.5" stroke-linecap="round"/>
</g>
</g>
</g>
<defs>
<clipPath id="clip0_2_3">
<rect width="1440" height="1024" fill="white" transform="translate(-20 -23)"/>
</clipPath>
</defs>
</svg>
